<svg xmlns="http://www.w3.org/2000/svg" width="69.404" height="69.404" viewBox="0 0 69.404 69.404">
  <g id="Group_2563" data-name="Group 2563" transform="translate(-272.298 -2488.298)">
    <g id="company-2" transform="translate(272.298 2488.298)">
      <path id="Path_4854" data-name="Path 4854" d="M8,168H32.291v43.956H8Z" transform="translate(-6.843 -143.709)" fill="#cf3339"/>
      <path id="Path_4870" data-name="Path 4870" d="M68.247,33.546H56.68V10.411a1.155,1.155,0,0,0-.687-1.057L35.172.1a1.156,1.156,0,0,0-1.626,1.057V19.665h-8.1a1.156,1.156,0,0,0-1.157,1.157v2.313H15.038v-5.52a9.27,9.27,0,0,0,.75-13.8,1.155,1.155,0,0,0-1.636,0L9.22,8.742,6.6,6.123,4.966,7.759l2.619,2.619L2.652,15.31a1.155,1.155,0,0,0,0,1.636,9.311,9.311,0,0,0,10.072,2.034v4.156H1.157A1.156,1.156,0,0,0,0,24.292V68.248A1.156,1.156,0,0,0,1.157,69.4h67.09A1.156,1.156,0,0,0,69.4,68.248V34.7a1.156,1.156,0,0,0-1.157-1.157ZM14.9,6.331a6.975,6.975,0,0,1-9.728,9.728ZM67.09,67.091H26.6V21.978h8.1a1.156,1.156,0,0,0,1.157-1.157V2.937l18.508,8.224V34.7a1.156,1.156,0,0,0,1.157,1.157H67.09ZM11.669,55.809c-.013.132-.024.261-.036.391-.014.174-.028.345-.037.515-.017.326-.029.643-.029.939a8.883,8.883,0,0,0,.282,2.467,7.731,7.731,0,0,1-1.153.009c-.563-.023-1.182-.021-1.747,0-.694.029-1.344.054-1.566-.158-.133-.128-.443-.61-.443-2.319,0-4.686,1.988-9.071,2.892-9.071.408,0,1.512,1.337,2.282,4.416A23.3,23.3,0,0,0,11.669,55.809Zm5.1-7.226c.9,0,2.892,4.385,2.892,9.071,0,1.711-.31,2.192-.443,2.319-.221.214-.874.189-1.566.158-.285-.012-.58-.024-.883-.024s-.6.013-.883.024c-.694.029-1.345.054-1.566-.158-.133-.128-.443-.61-.443-2.319,0-4.686,1.988-9.071,2.892-9.071ZM10.411,62.437c.064,0,.132,0,.194,0a5.221,5.221,0,0,0,2.686-.39,5.047,5.047,0,0,0,2.7.391c.067,0,.139,0,.208,0v4.652H10.411Zm8.1.017a3.264,3.264,0,0,0,2.316-.812c.8-.766,1.154-2,1.154-3.988,0-4.086-1.74-11.385-5.205-11.385-1.466,0-2.618,1.311-3.466,3.124-.759-1.634-1.884-3.124-3.475-3.124-3.466,0-5.205,7.3-5.205,11.385,0,1.993.356,3.223,1.154,3.988a3.264,3.264,0,0,0,2.316.812v4.636H2.313V25.449H24.291V67.091H18.508Z" transform="translate(0 0)" fill="#fff"/>
      <path id="Path_4871" data-name="Path 4871" d="M384,277.785a1.156,1.156,0,0,0,1.157,1.157h4.627a1.156,1.156,0,0,0,1.157-1.157v-4.627A1.156,1.156,0,0,0,389.784,272h-4.627A1.156,1.156,0,0,0,384,273.158Zm2.313-3.47h2.313v2.313h-2.313Z" transform="translate(-328.477 -232.672)" fill="#fff"/>
      <path id="Path_4872" data-name="Path 4872" d="M389.784,336h-4.627A1.156,1.156,0,0,0,384,337.158v4.627a1.156,1.156,0,0,0,1.157,1.157h4.627a1.156,1.156,0,0,0,1.157-1.157v-4.627A1.156,1.156,0,0,0,389.784,336Zm-1.157,4.627h-2.313v-2.313h2.313Z" transform="translate(-328.477 -287.418)" fill="#fff"/>
      <path id="Path_4873" data-name="Path 4873" d="M389.784,400h-4.627A1.156,1.156,0,0,0,384,401.158v4.627a1.156,1.156,0,0,0,1.157,1.157h4.627a1.156,1.156,0,0,0,1.157-1.157v-4.627A1.156,1.156,0,0,0,389.784,400Zm-1.157,4.627h-2.313v-2.313h2.313Z" transform="translate(-328.477 -342.164)" fill="#fff"/>
      <path id="Path_4874" data-name="Path 4874" d="M213.784,272h-4.627A1.156,1.156,0,0,0,208,273.158v4.627a1.156,1.156,0,0,0,1.157,1.157h4.627a1.156,1.156,0,0,0,1.157-1.157v-4.627A1.156,1.156,0,0,0,213.784,272Zm-1.157,4.627h-2.313v-2.313h2.313Z" transform="translate(-177.925 -232.672)" fill="#fff"/>
      <path id="Path_4875" data-name="Path 4875" d="M213.784,336h-4.627A1.156,1.156,0,0,0,208,337.158v4.627a1.156,1.156,0,0,0,1.157,1.157h4.627a1.156,1.156,0,0,0,1.157-1.157v-4.627A1.156,1.156,0,0,0,213.784,336Zm-1.157,4.627h-2.313v-2.313h2.313Z" transform="translate(-177.925 -287.418)" fill="#fff"/>
      <path id="Path_4876" data-name="Path 4876" d="M213.784,208h-4.627A1.156,1.156,0,0,0,208,209.158v4.627a1.156,1.156,0,0,0,1.157,1.157h4.627a1.156,1.156,0,0,0,1.157-1.157v-4.627A1.156,1.156,0,0,0,213.784,208Zm-1.157,4.627h-2.313v-2.313h2.313Z" transform="translate(-177.925 -177.926)" fill="#fff"/>
      <path id="Path_4877" data-name="Path 4877" d="M37.784,192H33.157A1.156,1.156,0,0,0,32,193.158v4.627a1.156,1.156,0,0,0,1.157,1.157h4.627a1.156,1.156,0,0,0,1.157-1.157v-4.627A1.156,1.156,0,0,0,37.784,192Zm-1.157,4.627H34.313v-2.313h2.313Z" transform="translate(-27.373 -164.239)" fill="#fff"/>
      <path id="Path_4878" data-name="Path 4878" d="M109.784,192h-4.627A1.156,1.156,0,0,0,104,193.158v4.627a1.156,1.156,0,0,0,1.157,1.157h4.627a1.156,1.156,0,0,0,1.157-1.157v-4.627A1.156,1.156,0,0,0,109.784,192Zm-1.157,4.627h-2.313v-2.313h2.313Z" transform="translate(-88.962 -164.239)" fill="#fff"/>
      <path id="Path_4879" data-name="Path 4879" d="M37.784,256H33.157A1.156,1.156,0,0,0,32,257.158v4.627a1.156,1.156,0,0,0,1.157,1.157h4.627a1.156,1.156,0,0,0,1.157-1.157v-4.627A1.156,1.156,0,0,0,37.784,256Zm-1.157,4.627H34.313v-2.313h2.313Z" transform="translate(-27.373 -218.985)" fill="#fff"/>
      <path id="Path_4880" data-name="Path 4880" d="M109.784,256h-4.627A1.156,1.156,0,0,0,104,257.158v4.627a1.156,1.156,0,0,0,1.157,1.157h4.627a1.156,1.156,0,0,0,1.157-1.157v-4.627A1.156,1.156,0,0,0,109.784,256Zm-1.157,4.627h-2.313v-2.313h2.313Z" transform="translate(-88.962 -218.985)" fill="#fff"/>
      <path id="Path_4881" data-name="Path 4881" d="M213.784,400h-4.627A1.156,1.156,0,0,0,208,401.158v4.627a1.156,1.156,0,0,0,1.157,1.157h4.627a1.156,1.156,0,0,0,1.157-1.157v-4.627A1.156,1.156,0,0,0,213.784,400Zm-1.157,4.627h-2.313v-2.313h2.313Z" transform="translate(-177.925 -342.164)" fill="#fff"/>
      <path id="Path_4882" data-name="Path 4882" d="M301.784,88h-4.627A1.156,1.156,0,0,0,296,89.158V138.9a1.156,1.156,0,0,0,1.157,1.157h4.627a1.156,1.156,0,0,0,1.157-1.157V89.158A1.156,1.156,0,0,0,301.784,88Zm-1.157,49.739h-2.313V90.314h2.313Z" transform="translate(-253.201 -75.277)" fill="#fff"/>
    </g>
  </g>
</svg>
