<svg xmlns="http://www.w3.org/2000/svg" width="17.604" height="17.6" viewBox="0 0 17.604 17.6">
  <path id="Icon_awesome-instagram" data-name="Icon awesome-instagram" d="M8.8,6.525a4.512,4.512,0,1,0,4.512,4.512A4.505,4.505,0,0,0,8.8,6.525Zm0,7.446a2.934,2.934,0,1,1,2.934-2.934A2.939,2.939,0,0,1,8.8,13.971Zm5.749-7.631A1.052,1.052,0,1,1,13.5,5.288,1.05,1.05,0,0,1,14.548,6.341Zm2.989,1.068a5.208,5.208,0,0,0-1.422-3.688A5.243,5.243,0,0,0,12.427,2.3c-1.453-.082-5.808-.082-7.261,0A5.235,5.235,0,0,0,1.478,3.717,5.226,5.226,0,0,0,.057,7.4c-.082,1.453-.082,5.808,0,7.261a5.208,5.208,0,0,0,1.422,3.688,5.249,5.249,0,0,0,3.688,1.422c1.453.082,5.808.082,7.261,0a5.208,5.208,0,0,0,3.688-1.422,5.243,5.243,0,0,0,1.422-3.688c.082-1.453.082-5.8,0-7.257Zm-1.877,8.817A2.97,2.97,0,0,1,13.986,17.9c-1.159.459-3.908.353-5.188.353s-4.033.1-5.188-.353a2.97,2.97,0,0,1-1.673-1.673c-.459-1.159-.353-3.908-.353-5.188S1.482,7,1.938,5.85A2.97,2.97,0,0,1,3.611,4.177c1.159-.459,3.908-.353,5.188-.353s4.033-.1,5.188.353A2.97,2.97,0,0,1,15.659,5.85c.459,1.159.353,3.908.353,5.188S16.119,15.071,15.659,16.225Z" transform="translate(0.005 -2.238)"/>
</svg>
