<svg xmlns="http://www.w3.org/2000/svg" width="39" height="39" viewBox="0 0 39 39">
  <circle id="Ellipse_9" data-name="Ellipse 9" cx="19.5" cy="19.5" r="19.5" fill="#0077b7"/>
  <path id="Icon_awesome-linkedin-in" data-name="Icon awesome-linkedin-in" d="M4.548,20.32H.336V6.754H4.548ZM2.44,4.9A2.451,2.451,0,1,1,4.88,2.44,2.46,2.46,0,0,1,2.44,4.9ZM20.315,20.32h-4.2v-6.6c0-1.574-.032-3.592-2.19-3.592-2.19,0-2.526,1.71-2.526,3.479V20.32H7.187V6.754h4.04V8.6h.059a4.427,4.427,0,0,1,3.986-2.191c4.264,0,5.047,2.808,5.047,6.454V20.32Z" transform="translate(10.555 8.125)" fill="#fff"/>
</svg>
