<svg xmlns="http://www.w3.org/2000/svg" width="68.453" height="68.422" viewBox="0 0 68.453 68.422">
  <g id="visionary" transform="translate(0 -0.117)">
    <path id="Path_4835" data-name="Path 4835" d="M115.752,217.051a3.965,3.965,0,0,0,1.308-2.925,4.009,4.009,0,1,0-8.018,0,3.965,3.965,0,0,0,1.308,2.925L95.775,246.466H91v4.009h7.253l12.793-25.853v21.844h-4.009v4.009h12.027v-4.009h-4.009V224.623l12.793,25.853H135.1v-4.009h-4.775Z" transform="translate(-78.839 -181.936)" fill="#fff"/>
    <path id="Path_4836" data-name="Path 4836" d="M410.515,1.155l1.038,3.872-3.874,1.038,5.188,19.362,3.874-1.038,1.038,3.872,3.872-1.038L414.387.117Z" transform="translate(-353.198 0)" fill="#fff"/>
    <path id="Path_4837" data-name="Path 4837" d="M9.06,164.924,6.985,157.18l3.874-1.038,1.038,3.874,3.872-1.038-3.113-11.618L8.784,148.4l1.037,3.873-3.874,1.038-2.075-7.746L0,146.6l5.188,19.362Z" transform="translate(0 -126.008)" fill="#fff"/>
    <path id="Path_4838" data-name="Path 4838" d="M126.925,79.561a7.921,7.921,0,0,1-.311-2.088,8,8,0,0,1,15.739-2.046l13.865-3.68-5.188-19.363-35.119,9.339L121.1,81.086Z" transform="translate(-100.422 -45.283)" fill="#fff"/>
  </g>
</svg>
