<svg xmlns="http://www.w3.org/2000/svg" width="77.294" height="62.741" viewBox="0 0 77.294 62.741">
  <g id="target" transform="translate(0 -48.2)">
    <path id="Path_4839" data-name="Path 4839" d="M370.689,188.7l6.258-8.343a2.264,2.264,0,0,0-1.812-3.623H363.008a2.265,2.265,0,0,0-1.812.906l-7.276,9.7a2.265,2.265,0,0,0,0,2.717l7.276,9.7a2.265,2.265,0,0,0,1.812.906h12.127a2.264,2.264,0,0,0,1.812-3.623Z" transform="translate(-300.106 -109.129)" fill="#fff"/>
    <path id="Path_4840" data-name="Path 4840" d="M123.155,157.342H128.4a17.139,17.139,0,1,0,0,4.529h-5.241a11.967,11.967,0,1,1,0-4.529Z" transform="translate(-80.036 -80.036)" fill="#fff"/>
    <path id="Path_4841" data-name="Path 4841" d="M57.467,93.349,52.032,86.1a21.668,21.668,0,1,1,0-13.061l5.436-7.248a6.752,6.752,0,0,1,1.379-1.369,31.37,31.37,0,1,0,0,30.295A6.751,6.751,0,0,1,57.467,93.349Z" fill="#fff"/>
    <path id="Path_4842" data-name="Path 4842" d="M165.971,211.906h7.084a7.438,7.438,0,1,0,0,4.529h-7.084a2.264,2.264,0,0,1,0-4.529Z" transform="translate(-134.6 -134.6)" fill="#fff"/>
  </g>
</svg>
