<svg id="Group_2598" data-name="Group 2598" xmlns="http://www.w3.org/2000/svg" width="103.254" height="34.354" viewBox="0 0 103.254 34.354">
  <path id="Path_4850" data-name="Path 4850" d="M63.047,94.589V91.575a1.8,1.8,0,0,0-2.008-2.057H60.32q-1.964,0-1.962,2.057v5.7a1.692,1.692,0,0,0,.384,1.292,9.924,9.924,0,0,0,1.243.859l4.354,2.343a20.2,20.2,0,0,1,2.034,1.269,3.254,3.254,0,0,1,.934,1.1,6.047,6.047,0,0,1,.335,2.461v7.322q0,5.793-5.552,5.79H59.268q-5.5,0-5.5-6.317v-1.722h4.592v1.865a1.8,1.8,0,0,0,2.06,2.011h.811q1.822,0,1.819-2.011V107.7a1.688,1.688,0,0,0-.381-1.292,9.947,9.947,0,0,0-1.246-.862l-4.354-2.441a13.508,13.508,0,0,1-2.08-1.292,2.955,2.955,0,0,1-.934-1.364,6.908,6.908,0,0,1-.286-2.177V91.24q0-5.887,5.5-5.884h2.87q5.5,0,5.5,5.884v3.349Z" transform="translate(-53.765 -85.356)" fill="#eb0000"/>
  <path id="Path_4851" data-name="Path 4851" d="M68.689,89.518V119.71H64.1V89.518h-4.4V85.356h13.4v4.162Z" transform="translate(-42.709 -85.356)" fill="#eb0000"/>
  <path id="Path_4852" data-name="Path 4852" d="M65.623,119.71V85.356h11.39v4.162h-6.8V99.949h6.027v4.163H70.218v11.436h6.8v4.163Z" transform="translate(-31.653 -85.356)" fill="#eb0000"/>
  <path id="Path_4853" data-name="Path 4853" d="M71.085,85.356h8.374q5.552,0,5.549,5.884v10.193q0,5.84-5.5,5.835h-3.83V119.71H71.085Zm4.592,17.75H78.6q1.818,0,1.819-2.008V91.527a1.8,1.8,0,0,0-2.057-2.008H75.677Z" transform="translate(-21.467 -85.356)" fill="#eb0000"/>
  <path id="Path_4854" data-name="Path 4854" d="M86.055,119.71q-5.5,0-5.5-5.884V91.24q0-5.887,5.5-5.884h3.206q5.5,0,5.5,5.884v22.586q0,5.887-5.5,5.884Zm.911-30.192q-1.822,0-1.819,2.008v22.01a1.8,1.8,0,0,0,2.057,2.011h1.149q1.818,0,1.819-2.011V91.527a1.8,1.8,0,0,0-2.057-2.008Z" transform="translate(-3.808 -85.356)" fill="#eb0000"/>
  <path id="Path_4855" data-name="Path 4855" d="M87.905,92.962,86.851,89.8a8.8,8.8,0,0,0,3.017-1.865,9.957,9.957,0,0,0,1.962-2.584h.478l3.014,1.627V119.71H90.776V92.1Z" transform="translate(7.932 -85.356)" fill="#eb0000"/>
</svg>
