<svg id="Group_2605" data-name="Group 2605" xmlns="http://www.w3.org/2000/svg" width="109.236" height="34.354" viewBox="0 0 109.236 34.354">
  <path id="Path_4912" data-name="Path 4912" d="M181.259,94.589V91.575a1.8,1.8,0,0,0-2.008-2.057h-.716q-1.964,0-1.962,2.057v5.7a1.692,1.692,0,0,0,.384,1.292,9.927,9.927,0,0,0,1.243.859l4.354,2.343a20.547,20.547,0,0,1,2.034,1.269,3.254,3.254,0,0,1,.934,1.1,6.112,6.112,0,0,1,.332,2.461v7.322q0,5.793-5.549,5.79H177.48q-5.5,0-5.5-6.317v-1.722h4.6v1.865a1.8,1.8,0,0,0,2.06,2.011h.811c1.215,0,1.816-.67,1.816-2.011V107.7a1.688,1.688,0,0,0-.378-1.292,10.171,10.171,0,0,0-1.246-.862l-4.354-2.441a13.506,13.506,0,0,1-2.08-1.292,2.933,2.933,0,0,1-.934-1.364,6.816,6.816,0,0,1-.289-2.177V91.24q0-5.887,5.5-5.884h2.871q5.5,0,5.5,5.884v3.349Z" transform="translate(-171.977 -85.356)" fill="#00bf64"/>
  <path id="Path_4913" data-name="Path 4913" d="M186.9,89.518V119.71h-4.6V89.518h-4.4V85.356h13.4v4.162Z" transform="translate(-160.919 -85.356)" fill="#00bf64"/>
  <path id="Path_4914" data-name="Path 4914" d="M183.836,119.71V85.356h11.387v4.162h-6.8V99.949h6.03v4.163h-6.03v11.436h6.8v4.163Z" transform="translate(-149.863 -85.356)" fill="#00bf64"/>
  <path id="Path_4915" data-name="Path 4915" d="M189.3,85.356h8.371q5.552,0,5.552,5.884v10.193q0,5.84-5.5,5.835H193.89V119.71H189.3Zm4.592,17.75h2.919c1.209,0,1.819-.67,1.819-2.008V91.527a1.8,1.8,0,0,0-2.057-2.008H193.89Z" transform="translate(-139.678 -85.356)" fill="#00bf64"/>
  <path id="Path_4916" data-name="Path 4916" d="M204.27,119.71q-5.5,0-5.5-5.884V91.24q0-5.887,5.5-5.884h3.206q5.5,0,5.5,5.884v22.586q0,5.887-5.5,5.884Zm.911-30.192q-1.822,0-1.819,2.008v22.01a1.8,1.8,0,0,0,2.057,2.011h1.149q1.818,0,1.819-2.011V91.527a1.8,1.8,0,0,0-2.06-2.008Z" transform="translate(-122.02 -85.356)" fill="#00bf64"/>
  <path id="Path_4917" data-name="Path 4917" d="M218.589,115.6v4.114H206.247V109.136a6.1,6.1,0,0,1,.14-1.435,3.163,3.163,0,0,1,.5-1.077,12.539,12.539,0,0,1,1.269-1.412l4.641-4.449c.35-.352.627-.653.837-.911a3.066,3.066,0,0,0,.43-.645,1.665,1.665,0,0,0,.146-.55c.014-.192.023-.447.023-.765V91.527a1.755,1.755,0,0,0-1.962-2.008h-.289a1.753,1.753,0,0,0-1.96,2.008V95.07h-4.6V91.24q0-5.887,5.5-5.884h2.392q5.5,0,5.5,5.884v8.23a4.878,4.878,0,0,1-.264,1.676,5.284,5.284,0,0,1-1.361,1.768l-5.073,4.882a5.578,5.578,0,0,0-1.1,1.243,2.1,2.1,0,0,0-.169.67c-.017.223-.023.527-.023.911V115.6Z" transform="translate(-109.593 -85.356)" fill="#00bf64"/>
</svg>
