<svg xmlns="http://www.w3.org/2000/svg" width="20.107" height="16.331" viewBox="0 0 20.107 16.331">
  <path id="Icon_awesome-twitter" data-name="Icon awesome-twitter" d="M18.04,7.451c.013.179.013.357.013.536A11.645,11.645,0,0,1,6.328,19.711,11.645,11.645,0,0,1,0,17.862a8.525,8.525,0,0,0,1,.051,8.253,8.253,0,0,0,5.116-1.761,4.128,4.128,0,0,1-3.853-2.858,5.2,5.2,0,0,0,.778.064,4.358,4.358,0,0,0,1.084-.14,4.121,4.121,0,0,1-3.3-4.044V9.122a4.15,4.15,0,0,0,1.863.523A4.127,4.127,0,0,1,1.4,4.133,11.714,11.714,0,0,0,9.9,8.446,4.652,4.652,0,0,1,9.8,7.5a4.125,4.125,0,0,1,7.132-2.82,8.113,8.113,0,0,0,2.615-1,4.11,4.11,0,0,1-1.812,2.271,8.261,8.261,0,0,0,2.373-.638A8.858,8.858,0,0,1,18.04,7.451Z" transform="translate(0 -3.381)"/>
</svg>
