<svg xmlns="http://www.w3.org/2000/svg" width="21.974" height="21.974" viewBox="0 0 21.974 21.974">
  <path id="Icon_awesome-wheelchair" data-name="Icon awesome-wheelchair" d="M21.291,16.552l.611,1.23a.687.687,0,0,1-.31.92l-2.81,1.411a1.374,1.374,0,0,1-1.854-.646l-2.694-5.734H8.24a1.373,1.373,0,0,1-1.36-1.179C5.426,2.374,5.51,3.006,5.493,2.747A2.747,2.747,0,1,1,8.642,5.464l.2,1.4H14.42a.687.687,0,0,1,.687.687V8.927a.687.687,0,0,1-.687.687H9.235l.2,1.373h5.676a1.373,1.373,0,0,1,1.243.789l2.468,5.253,1.553-.787a.687.687,0,0,1,.92.31Zm-7.929-1.445H12.311a4.807,4.807,0,1,1-7.147-4.856L4.757,7.4a7.553,7.553,0,1,0,9.711,10.055Z" fill="#fff"/>
</svg>
