<svg xmlns="http://www.w3.org/2000/svg" width="21.604" height="15.19" viewBox="0 0 21.604 15.19">
  <path id="Icon_awesome-youtube" data-name="Icon awesome-youtube" d="M22.2,6.877a2.715,2.715,0,0,0-1.91-1.922C18.608,4.5,11.852,4.5,11.852,4.5s-6.756,0-8.441.454A2.715,2.715,0,0,0,1.5,6.877a28.477,28.477,0,0,0-.451,5.234A28.477,28.477,0,0,0,1.5,17.344a2.674,2.674,0,0,0,1.91,1.892c1.685.454,8.441.454,8.441.454s6.756,0,8.441-.454a2.674,2.674,0,0,0,1.91-1.892,28.477,28.477,0,0,0,.451-5.234A28.477,28.477,0,0,0,22.2,6.877ZM9.643,15.323V8.9l5.647,3.212L9.643,15.323Z" transform="translate(-1.05 -4.5)"/>
</svg>
