<svg xmlns="http://www.w3.org/2000/svg" width="17.594" height="17.593" viewBox="0 0 17.594 17.593">
  <path id="Icon_awesome-linkedin-in" data-name="Icon awesome-linkedin-in" d="M3.938,17.594H.291V5.848H3.938ZM2.112,4.246A2.122,2.122,0,1,1,4.225,2.113,2.13,2.13,0,0,1,2.112,4.246ZM17.59,17.594H13.95V11.876c0-1.363-.027-3.11-1.9-3.11-1.9,0-2.187,1.481-2.187,3.012v5.816H6.223V5.848h3.5v1.6h.051a3.833,3.833,0,0,1,3.451-1.9c3.692,0,4.37,2.431,4.37,5.588v6.452Z" transform="translate(0 -0.001)"/>
</svg>
