<svg xmlns="http://www.w3.org/2000/svg" width="30.24" height="35.977" viewBox="0 0 30.24 35.977">
  <path id="Icon_map-bus-station" data-name="Icon map-bus-station" d="M29.637,18H6.582a1.249,1.249,0,0,1-1.225-1.234,1.6,1.6,0,0,1,.042-.333L6.627,7.866c.1-.557.606-.666,1.205-.666H28.39c.6,0,1.1.1,1.2.654l1.227,8.724a1.273,1.273,0,0,1,.043.271A1.183,1.183,0,0,1,29.637,18Zm-.922,9.608a2.291,2.291,0,1,1,2.344-2.3A2.32,2.32,0,0,1,28.714,27.608Zm-21.241,0a2.291,2.291,0,1,1,2.353-2.3,2.318,2.318,0,0,1-2.353,2.3ZM11.52,2.16h14.4V4.32H11.52A1.08,1.08,0,1,1,11.52,2.16Zm20.305,3.3c-.42-2.025-1.649-2.841-3.653-3.656A33.175,33.175,0,0,0,18.051.023,33.412,33.412,0,0,0,7.888,1.809c-2,.816-3.211,1.631-3.628,3.656L2.88,16.739V32.4H5.04v1.44c0,2.88,3.6,2.88,3.6,0V32.4h18v1.44a2.16,2.16,0,1,0,4.32,0V32.4h2.16V16.739L31.825,5.465Z" transform="translate(-2.88 -0.023)" fill="#fff"/>
</svg>
