<svg xmlns="http://www.w3.org/2000/svg" width="25.014" height="34.514" viewBox="0 0 25.014 34.514">
  <path id="Icon_map-train-station" data-name="Icon map-train-station" d="M24.942,27.221l-.081-.156.041-.058.041-.058A9.616,9.616,0,0,0,27,25.794a3.406,3.406,0,0,0,1.239-2.022l.155-.711V4.685A2.816,2.816,0,0,0,28,3.313a5.262,5.262,0,0,0-.983-1.279,5.644,5.644,0,0,0-1.313-.944,3.072,3.072,0,0,0-1.4-.37H11.159A3.12,3.12,0,0,0,9.8,1.071a5.625,5.625,0,0,0-1.335.905,5,5,0,0,0-1,1.233A2.745,2.745,0,0,0,7.073,4.57V23.219a2.406,2.406,0,0,0,.235.981,4.829,4.829,0,0,0,.589.958,6.07,6.07,0,0,0,.768.828,5.214,5.214,0,0,0,.8.608c.127.053.359.135.689.24s.474.181.449.231L5.226,35.234h3.14l3.929-5.694h10.84l3.925,5.694H30.24ZM14.612,2.289a.627.627,0,0,1,.2-.414.537.537,0,0,1,.392-.212h5.027a.816.816,0,0,1,.315.153c.155.105.233.21.233.314V4.054a.445.445,0,0,1-.2.353.6.6,0,0,1-.353.163H15.163L15,4.445a1.434,1.434,0,0,1-.254-.217.393.393,0,0,1-.138-.289V2.289ZM9.545,7.669A1.812,1.812,0,0,1,9.723,6.9a3.016,3.016,0,0,1,.451-.688,2.269,2.269,0,0,1,.647-.507,1.627,1.627,0,0,1,.769-.2H23.8a1.812,1.812,0,0,1,.7.154,2.416,2.416,0,0,1,.649.433,2.464,2.464,0,0,1,.472.592,1.326,1.326,0,0,1,.174.665v4.164a1.328,1.328,0,0,1-.194.684,2.12,2.12,0,0,1-.51.6,2.937,2.937,0,0,1-.668.406,1.62,1.62,0,0,1-.7.158H11.668l-.2-.035a1.188,1.188,0,0,1-.237-.081,1.992,1.992,0,0,1-1.176-.707,1.93,1.93,0,0,1-.512-1.294V7.669ZM13.18,23.887a2.025,2.025,0,0,1-1.512.627,1.906,1.906,0,0,1-1.476-.627,2.205,2.205,0,0,1-.568-1.534,1.982,1.982,0,0,1,.591-1.43,1.939,1.939,0,0,1,1.453-.613,2.159,2.159,0,0,1,1.512.568,1.979,1.979,0,0,1,.608,1.516A2.069,2.069,0,0,1,13.18,23.887Zm8.992,0a2.129,2.129,0,0,1-.611-1.534,1.875,1.875,0,0,1,.648-1.475,2.249,2.249,0,0,1,1.515-.568,1.925,1.925,0,0,1,1.471.613,2.03,2.03,0,0,1,.571,1.43,2.163,2.163,0,0,1-.59,1.534,1.963,1.963,0,0,1-1.495.627,2.016,2.016,0,0,1-1.509-.627Z" transform="translate(-5.226 -0.72)" fill="#fff"/>
</svg>
