<svg xmlns="http://www.w3.org/2000/svg" width="18.794" height="13.444" viewBox="0 0 18.794 13.444">
  <path id="Icon_awesome-arrow-right" data-name="Icon awesome-arrow-right" d="M5.865,3.548l.683-.683a.736.736,0,0,1,1.044,0l5.985,5.982a.736.736,0,0,1,0,1.044L7.592,15.875a.736.736,0,0,1-1.044,0l-.683-.683a.74.74,0,0,1,.012-1.056L9.587,10.6H-4.261A.737.737,0,0,1-5,9.862V8.877a.737.737,0,0,1,.739-.739H9.587L5.877,4.6A.734.734,0,0,1,5.865,3.548Z" transform="translate(5 -2.647)" fill="#fff"/>
</svg>
