<svg xmlns="http://www.w3.org/2000/svg" width="47.36" height="52.623" viewBox="0 0 47.36 52.623">
  <path id="Icon_material-event-available" data-name="Icon material-event-available" d="M40.1,27.969,37.31,25.18,24.47,38.02l-5.578-5.578L16.1,35.231,24.47,43.6ZM46.6,6.762H43.967V1.5H38.7V6.762H17.656V1.5H12.393V6.762H9.762a5.238,5.238,0,0,0-5.236,5.262L4.5,48.86a5.261,5.261,0,0,0,5.262,5.262H46.6A5.278,5.278,0,0,0,51.86,48.86V12.025A5.278,5.278,0,0,0,46.6,6.762Zm0,42.1H9.762V19.918H46.6Z" transform="translate(-4.5 -1.5)" fill="#ffc13e"/>
</svg>
