<svg xmlns="http://www.w3.org/2000/svg" width="16.001" height="17.779" viewBox="0 0 16.001 17.779">
  <path id="Icon_material-event-available" data-name="Icon material-event-available" d="M16.527,10.443,15.585,9.5l-4.338,4.338L9.362,11.954,8.42,12.9l2.827,2.827Zm2.2-7.165h-.889V1.5H16.056V3.278H8.945V1.5H7.167V3.278H6.278A1.77,1.77,0,0,0,4.509,5.056L4.5,17.5a1.777,1.777,0,0,0,1.778,1.778H18.723A1.783,1.783,0,0,0,20.5,17.5V5.056A1.783,1.783,0,0,0,18.723,3.278Zm0,14.223H6.278V7.722H18.723Z" transform="translate(-4.5 -1.5)" fill="#cf3339"/>
</svg>
