<svg xmlns="http://www.w3.org/2000/svg" width="51" height="51" viewBox="0 0 51 51">
  <g id="Group_2631" data-name="Group 2631" transform="translate(-310 -1308)">
    <circle id="Ellipse_38" data-name="Ellipse 38" cx="25.5" cy="25.5" r="25.5" transform="translate(310 1308)" fill="#fff"/>
    <path id="Icon_awesome-download" data-name="Icon awesome-download" d="M8.927,0h3.306a.989.989,0,0,1,.992.992V7.935h3.624a.825.825,0,0,1,.583,1.409l-6.286,6.29a.8.8,0,0,1-1.128,0L3.724,9.344a.825.825,0,0,1,.583-1.409H7.935V.992A.989.989,0,0,1,8.927,0ZM21.16,15.539v4.629a.989.989,0,0,1-.992.992H.992A.989.989,0,0,1,0,20.168V15.539a.989.989,0,0,1,.992-.992H7.055L9.08,16.572a2.118,2.118,0,0,0,3,0l2.025-2.025h6.063A.989.989,0,0,1,21.16,15.539Zm-5.125,3.637a.827.827,0,1,0-.827.827A.829.829,0,0,0,16.035,19.176Zm2.645,0a.827.827,0,1,0-.827.827A.829.829,0,0,0,18.68,19.176Z" transform="translate(324.92 1322.92)" fill="#cf3339"/>
  </g>
</svg>
