<svg xmlns="http://www.w3.org/2000/svg" width="30.771" height="30.654" viewBox="0 0 30.771 30.654">
  <g id="newsletter_1_" data-name="newsletter (1)" transform="translate(-0.017 -0.472) rotate(-1)">
    <path id="Path_164" data-name="Path 164" d="M15.408,1.095a.473.473,0,0,0-.567,0L0,12.226V29.536a1.6,1.6,0,0,0,1.6,1.6H28.95a1.3,1.3,0,0,0,1.3-1.3V12.226Z" fill="#8ead5a"/>
    <path id="Path_165" data-name="Path 165" d="M58,199H32.473a.473.473,0,0,0-.473.473v11.343a.473.473,0,0,0,.473.473H58a.473.473,0,0,0,.473-.473V199.473A.473.473,0,0,0,58,199Z" transform="translate(-30.109 -186.302)" fill="#dbd9e2"/>
    <path id="Path_166" data-name="Path 166" d="M58,31H32.473a.473.473,0,0,0-.473.473V42.816a.473.473,0,0,0,.473.473H58a.473.473,0,0,0,.473-.473V31.473A.473.473,0,0,0,58,31Z" transform="translate(-30.109 -28.227)" fill="#edecf1"/>
    <path id="Path_167" data-name="Path 167" d="M45.234,200.453,32,209.906H59.059a1.3,1.3,0,0,0,1.3-1.3V191Z" transform="translate(-30.109 -178.774)" fill="#bbd492"/>
    <path id="Path_168" data-name="Path 168" d="M204.8,370.925h0l1.213-.758Z" transform="translate(-192.699 -347.356)" fill="#8ead5a" opacity="0.6"/>
    <path id="Path_169" data-name="Path 169" d="M280.91,191l-14.51,9.069,14.42,9.013a1.3,1.3,0,0,0,.09-.475V191Z" transform="translate(-250.661 -178.774)" fill="#bbd492"/>
    <path id="Path_170" data-name="Path 170" d="M43.422,346.016l-1.213.758L32,354.337H59.059a1.3,1.3,0,0,0,1.21-.824L45.849,344.5Z" transform="translate(-30.109 -323.206)" fill="#8ead5a" opacity="0.6"/>
    <g id="Group_2518" data-name="Group 2518" transform="translate(0 12.226)">
      <path id="Path_171" data-name="Path 171" d="M0,191v17.606a1.3,1.3,0,0,0,.474,1l14.651-9.157Z" transform="translate(0 -191)" fill="#bbd492"/>
      <path id="Path_172" data-name="Path 172" d="M8.02,360.157a1.294,1.294,0,0,0,.826.3H36.5a1.294,1.294,0,0,0,.826-.3L22.671,351Z" transform="translate(-7.546 -341.547)" fill="#bbd492"/>
    </g>
    <path id="Path_173" data-name="Path 173" d="M348.254,87h-3.781a.473.473,0,0,0-.473.473V92.2a.473.473,0,0,0,.473.473h3.781a.473.473,0,0,0,.473-.473V87.473A.473.473,0,0,0,348.254,87Z" transform="translate(-323.676 -80.919)" fill="#f09c48"/>
    <rect id="Rectangle_104" data-name="Rectangle 104" width="2.928" height="3.513" transform="translate(20.98 7.283)" fill="#edbc53"/>
    <g id="Group_2519" data-name="Group 2519" transform="translate(5.199 6.081)">
      <path id="Path_174" data-name="Path 174" d="M101.707,87.945H88.473a.473.473,0,0,1,0-.945h13.234a.473.473,0,1,1,0,.945Z" transform="translate(-88 -87)" fill="#a4a0b8"/>
      <path id="Path_175" data-name="Path 175" d="M95.562,127.945h-7.09a.473.473,0,0,1,0-.945h7.09a.473.473,0,0,1,0,.945Z" transform="translate(-88 -124.637)" fill="#a4a0b8"/>
      <path id="Path_176" data-name="Path 176" d="M244.726,127.945h-4.254a.473.473,0,1,1,0-.945h4.254a.473.473,0,0,1,0,.945Z" transform="translate(-231.02 -124.637)" fill="#a4a0b8"/>
      <path id="Path_177" data-name="Path 177" d="M97.926,167.945H88.473a.473.473,0,1,1,0-.945h9.453a.473.473,0,0,1,0,.945Z" transform="translate(-88 -162.274)" fill="#a4a0b8"/>
      <path id="Path_178" data-name="Path 178" d="M282.363,167.945h-1.891a.473.473,0,1,1,0-.945h1.891a.473.473,0,0,1,0,.945Z" transform="translate(-268.656 -162.274)" fill="#a4a0b8"/>
    </g>
    <g id="Group_2520" data-name="Group 2520" transform="translate(9.926 16.479)">
      <path id="Path_179" data-name="Path 179" d="M290.836,263.945h-2.363a.473.473,0,1,1,0-.945h2.363a.473.473,0,1,1,0,.945Z" transform="translate(-280.91 -263)" fill="#928da9"/>
      <path id="Path_180" data-name="Path 180" d="M173.672,263.945h-5.2a.473.473,0,1,1,0-.945h5.2a.473.473,0,1,1,0,.945Z" transform="translate(-168 -263)" fill="#928da9"/>
      <path id="Path_181" data-name="Path 181" d="M209.891,303.945h-1.418a.473.473,0,0,1,0-.945h1.418a.473.473,0,0,1,0,.945Z" transform="translate(-205.637 -300.637)" fill="#928da9"/>
      <path id="Path_182" data-name="Path 182" d="M265.418,303.945h-.945a.473.473,0,0,1,0-.945h.945a.473.473,0,0,1,0,.945Z" transform="translate(-258.328 -300.637)" fill="#928da9"/>
    </g>
  </g>
</svg>
