<svg xmlns="http://www.w3.org/2000/svg" width="67.405" height="67.405" viewBox="0 0 67.405 67.405">
  <g id="Group_2566" data-name="Group 2566" transform="translate(-273.298 -2490.298)">
    <g id="roadway" transform="translate(273.298 2490.298)">
      <circle id="Ellipse_35" data-name="Ellipse 35" cx="4" cy="4" r="4" transform="translate(29.702 1.702)" fill="#fff"/>
      <path id="Path_4890" data-name="Path 4890" d="M58.417,160.68c2.889-.193,5.617-1.4,5.617-7.829,0-5.88-2.315-16.851-6.74-16.851s-6.74,10.971-6.74,16.851c0,6.425,2.728,7.636,5.617,7.829v3.405H42.69V160.68c2.889-.193,5.617-1.4,5.617-7.829,0-5.88-2.315-16.851-6.74-16.851s-6.74,10.971-6.74,16.851c0,6.425,2.728,7.636,5.617,7.829v3.405H26.962V160.68c2.889-.193,5.617-1.4,5.617-7.829,0-5.88-2.315-16.851-6.74-16.851s-6.74,10.971-6.74,16.851c0,6.425,2.728,7.636,5.617,7.829v3.405H11.234V160.68c2.889-.193,5.617-1.4,5.617-7.829,0-5.88-2.315-16.851-6.74-16.851s-6.74,10.971-6.74,16.851c0,6.425,2.728,7.636,5.617,7.829v3.405H0v2.247H67.4v-2.247H58.417Zm-1.123-22.433c1.441,0,4.494,6.909,4.494,14.6,0,5.617-2.083,5.617-4.494,5.617s-4.494,0-4.494-5.617c0-7.7,3.052-14.6,4.494-14.6Zm-15.728,0c1.441,0,4.494,6.909,4.494,14.6,0,5.617-2.083,5.617-4.494,5.617s-4.494,0-4.494-5.617c0-7.7,3.052-14.6,4.494-14.6Zm-15.728,0c1.441,0,4.494,6.909,4.494,14.6,0,5.617-2.083,5.617-4.494,5.617s-4.494,0-4.494-5.617c0-7.7,3.052-14.6,4.494-14.6Zm-15.728,0c1.441,0,4.494,6.909,4.494,14.6,0,5.617-2.083,5.617-4.494,5.617s-4.494,0-4.494-5.617c0-7.7,3.052-14.6,4.494-14.6Z" transform="translate(0 -116.902)" fill="#fff"/>
      <path id="Path_4891" data-name="Path 4891" d="M0,465.123v1.123H67.4V464H0Z" transform="translate(0 -398.842)" fill="#fff"/>
      <path id="Path_4892" data-name="Path 4892" d="M24,400h6.74v2.247H24Z" transform="translate(-20.63 -343.829)" fill="#fff"/>
      <path id="Path_4893" data-name="Path 4893" d="M120,400h6.74v2.247H120Z" transform="translate(-103.149 -343.829)" fill="#fff"/>
      <path id="Path_4894" data-name="Path 4894" d="M216,400h6.74v2.247H216Z" transform="translate(-185.668 -343.829)" fill="#fff"/>
      <path id="Path_4895" data-name="Path 4895" d="M312,400h6.74v2.247H312Z" transform="translate(-268.187 -343.829)" fill="#fff"/>
      <path id="Path_4896" data-name="Path 4896" d="M408,400h6.74v2.247H408Z" transform="translate(-350.706 -343.829)" fill="#fff"/>
      <path id="Path_4897" data-name="Path 4897" d="M200,5.617A5.617,5.617,0,1,0,205.617,0,5.623,5.623,0,0,0,200,5.617Zm5.617,3.37a3.37,3.37,0,1,1,3.37-3.37A3.374,3.374,0,0,1,205.617,8.987Z" transform="translate(-171.915)" fill="#fff"/>
      <path id="Path_4898" data-name="Path 4898" d="M4.494,11.234H15.728a4.494,4.494,0,1,0,0-8.987,4.307,4.307,0,0,0-1.043.128,5.593,5.593,0,0,0-9.149,0,4.307,4.307,0,0,0-1.043-.128,4.494,4.494,0,1,0,0,8.987Zm0-6.74a2.212,2.212,0,0,1,1.021.262,1.123,1.123,0,0,0,1.538-.531,3.353,3.353,0,0,1,6.116,0,1.126,1.126,0,0,0,.655.6,1.139,1.139,0,0,0,.883-.064,2.241,2.241,0,1,1,1.021,4.232H4.494a2.247,2.247,0,1,1,0-4.494Z" fill="#fff"/>
      <path id="Path_4899" data-name="Path 4899" d="M351.728,2.247a4.307,4.307,0,0,0-1.043.128,5.593,5.593,0,0,0-9.149,0,4.307,4.307,0,0,0-1.043-.128,4.494,4.494,0,1,0,0,8.987h11.234a4.494,4.494,0,0,0,0-8.987Zm0,6.74H340.494a2.247,2.247,0,1,1,0-4.494,2.212,2.212,0,0,1,1.021.262,1.123,1.123,0,0,0,1.538-.531,3.353,3.353,0,0,1,6.116,0,1.126,1.126,0,0,0,.655.6,1.139,1.139,0,0,0,.883-.064,2.241,2.241,0,1,1,1.021,4.232Z" transform="translate(-288.817)" fill="#fff"/>
    </g>
  </g>
</svg>
