<svg xmlns="http://www.w3.org/2000/svg" width="66.424" height="66.404" viewBox="0 0 66.424 66.404">
  <g id="Group_2569" data-name="Group 2569" transform="translate(-273.788 -2490.298)">
    <g id="project-management" transform="translate(272.052 2488.546)">
      <path id="Path_4900" data-name="Path 4900" d="M53.679,26.839A19.839,19.839,0,1,0,23.135,43.545a6.32,6.32,0,0,1,2.989,5.293v4.454A3.307,3.307,0,0,0,29.431,56.6h8.817a3.307,3.307,0,0,0,3.307-3.307V48.929A6.493,6.493,0,0,1,44.608,43.5a19.822,19.822,0,0,0,9.071-16.665Z" transform="translate(1.253 0.536)" fill="#cf3339"/>
      <path id="Path_4904" data-name="Path 4904" d="M67.212,19.157l-4.287-.612a1.1,1.1,0,0,1-.506-1.973l3.465-2.6a1.1,1.1,0,0,0,.22-1.543l-3.968-5.29a1.1,1.1,0,0,0-1.543-.22l-3.464,2.6a1.1,1.1,0,0,1-1.757-1.037l.613-4.287a1.1,1.1,0,0,0-.936-1.248l-6.543-.935a1.1,1.1,0,0,0-1.248.935l-.613,4.287a1.1,1.1,0,0,1-1.973.506l-2.6-3.465a1.1,1.1,0,0,0-1.543-.22L37.221,6.539a21.324,21.324,0,0,0-4.508,0A20.941,20.941,0,0,0,14.248,25.317c-.03.312-.041.622-.056.931h-.331a1.1,1.1,0,0,0-1.078.882l-.762,3.622-3.051-2.1a1.1,1.1,0,0,0-1.405.128L4.259,32.082a1.1,1.1,0,0,0-.128,1.4l2.094,3.045L2.6,37.293a1.1,1.1,0,0,0-.866,1.079v4.409a1.1,1.1,0,0,0,.875,1.079l3.623.762L4.14,47.667a1.1,1.1,0,0,0,.128,1.4l3.307,3.307a1.1,1.1,0,0,0,1.405.128l3.045-2.1.762,3.623a1.1,1.1,0,0,0,1.078.882h4.409a1.1,1.1,0,0,0,1.079-.875l.762-3.623,3.045,2.094a1.1,1.1,0,0,0,1.4-.128l1.712-1.717V53.8a4.394,4.394,0,0,0,2.2,3.8v6.124a4.409,4.409,0,0,0,4.409,4.409H37.3a4.409,4.409,0,0,0,4.409-4.409V57.6a4.394,4.394,0,0,0,2.2-3.8V49.44a5.4,5.4,0,0,1,2.549-4.5,21.145,21.145,0,0,0,2.595-1.984l-1.47-1.642a18.76,18.76,0,0,1-2.322,1.776,7.592,7.592,0,0,0-3.556,6.35V53.8a2.2,2.2,0,0,1-2.2,2.2H30.684a2.2,2.2,0,0,1-2.2-2.2V49.348a7.415,7.415,0,0,0-3.5-6.221,18.681,18.681,0,0,1,9.872-34.5,1.2,1.2,0,0,0-.043.12,1.1,1.1,0,0,0,.211.817l2.6,3.464a1.079,1.079,0,0,1,.066,1.223,1.1,1.1,0,0,1-1.1.53L32.3,14.171a1.1,1.1,0,0,0-1.248.936l-.936,6.546A1.1,1.1,0,0,0,31.05,22.9l4.287.613a1.1,1.1,0,0,1,.506,1.973l-3.464,2.6a1.1,1.1,0,0,0-.22,1.543l3.968,5.29a1.1,1.1,0,0,0,1.543.22l3.465-2.6a1.1,1.1,0,0,1,1.751,1.037l-.612,4.287a1.1,1.1,0,0,0,.935,1.248l6.547.936a1.224,1.224,0,0,0,.155.01A1.1,1.1,0,0,0,51,39.113l.612-4.287a1.1,1.1,0,0,1,1.973-.506l2.6,3.464A1.1,1.1,0,0,0,57.73,38l5.29-3.968a1.1,1.1,0,0,0,.22-1.543l-2.6-3.464a1.083,1.083,0,0,1-.066-1.223,1.07,1.07,0,0,1,1.1-.529l4.287.612a1.1,1.1,0,0,0,1.248-.935l.935-6.547a1.1,1.1,0,0,0-.935-1.248ZM16.106,36.168A20.872,20.872,0,0,0,20.2,42.06a4.4,4.4,0,1,1-4.133-5.892ZM37.3,65.926H32.888a2.2,2.2,0,0,1-2.2-2.2v-1.1H39.5v1.1A2.2,2.2,0,0,1,37.3,65.926Zm2.2-7.715v2.2H30.684v-2.2ZM26.014,47.805l-2.364,2.36L21.36,48.587a2.2,2.2,0,0,0-3.408,1.361L17.375,52.7h-2.62l-.578-2.748a2.2,2.2,0,0,0-3.408-1.361l-2.29,1.574-2.008-2,1.577-2.288a2.2,2.2,0,0,0-1.36-3.409L3.94,41.886V39.267l2.748-.579a2.2,2.2,0,0,0,1.361-3.4L6.471,32.991l2.008-2,2.291,1.578A2.2,2.2,0,0,0,14.177,31.2l.193-.917a20.985,20.985,0,0,0,.874,3.737,6.613,6.613,0,1,0,6.665,9.589,20.836,20.836,0,0,0,1.884,1.372,5.38,5.38,0,0,1,2.221,2.82ZM65.182,25.547l-3.2-.456a3.307,3.307,0,0,0-3.113,5.257l1.937,2.582-3.527,2.645-1.938-2.581a3.307,3.307,0,0,0-5.919,1.515l-.446,3.2-4.364-.624.456-3.2a3.307,3.307,0,0,0-5.257-3.114l-2.582,1.937-2.645-3.527,2.581-1.938a3.307,3.307,0,0,0-1.515-5.919l-3.2-.456.624-4.364,3.2.456a3.307,3.307,0,0,0,3.114-5.257L37.448,9.125l3.527-2.645,1.938,2.582a3.307,3.307,0,0,0,5.919-1.515l.456-3.2,4.364.623-.456,3.2a3.307,3.307,0,0,0,5.257,3.113l2.582-1.937,2.645,3.527L61.1,14.81a3.307,3.307,0,0,0,1.515,5.919l3.2.456Z" transform="translate(0 0.025)" fill="#fff"/>
      <path id="Path_4905" data-name="Path 4905" d="M45.553,11.264a8.817,8.817,0,1,0,8.817,8.817,8.817,8.817,0,0,0-8.817-8.817Zm0,15.43a6.613,6.613,0,1,1,6.613-6.613,6.613,6.613,0,0,1-6.613,6.613Z" transform="translate(3.576 0.972)" fill="#fff"/>
      <path id="Path_4906" data-name="Path 4906" d="M31,46h2.2v3.307H31Z" transform="translate(2.99 4.521)" fill="#fff"/>
      <path id="Path_4907" data-name="Path 4907" d="M28.61,38.532a13.226,13.226,0,0,1-2.233-23.513L25.2,13.154A15.43,15.43,0,0,0,27.81,40.583a7.036,7.036,0,0,1,4.519,6.569h2.2A9.222,9.222,0,0,0,28.61,38.532Z" transform="translate(1.661 1.165)" fill="#fff"/>
      <path id="Path_4908" data-name="Path 4908" d="M51,39h7.715v2.2H51Z" transform="translate(5.034 3.806)" fill="#fff"/>
      <path id="Path_4909" data-name="Path 4909" d="M0,0H2.2V8.608H0Z" transform="matrix(0.64, -0.768, 0.768, 0.64, 54.226, 50.267)" fill="#fff"/>
      <path id="Path_4910" data-name="Path 4910" d="M45,47h2.2v7.715H45Z" transform="translate(4.421 4.623)" fill="#fff"/>
      <path id="Path_4911" data-name="Path 4911" d="M0,0H9.089V2.2H0Z" transform="matrix(0.97, -0.243, 0.243, 0.97, 2.862, 20.795)" fill="#fff"/>
      <path id="Path_4912" data-name="Path 4912" d="M0,0H2.2V9.481H0Z" transform="matrix(0.581, -0.814, 0.814, 0.581, 4.693, 9.536)" fill="#fff"/>
      <path id="Path_4913" data-name="Path 4913" d="M0,0H2.2V9.1H0Z" transform="matrix(0.969, -0.248, 0.248, 0.969, 14.137, 2.298)" fill="#fff"/>
    </g>
  </g>
</svg>
