<svg xmlns="http://www.w3.org/2000/svg" width="63.097" height="87.059" viewBox="0 0 63.097 87.059">
  <g id="Group_2581" data-name="Group 2581" transform="translate(-1904.719 -1630.652)">
    <path id="Icon_map-train-station" data-name="Icon map-train-station" d="M54.957,67.567l-.205-.392.1-.147.1-.147a24.256,24.256,0,0,0,5.2-2.913,8.592,8.592,0,0,0,3.126-5.1l.39-1.794V10.722a7.1,7.1,0,0,0-.993-3.46A13.274,13.274,0,0,0,60.2,4.034a14.237,14.237,0,0,0-3.313-2.381A7.749,7.749,0,0,0,53.364.72H20.193a7.87,7.87,0,0,0-3.423.884A14.189,14.189,0,0,0,13.4,3.887,12.606,12.606,0,0,0,10.878,7a6.925,6.925,0,0,0-.993,3.433v47.04a6.07,6.07,0,0,0,.594,2.475,12.18,12.18,0,0,0,1.486,2.417A15.311,15.311,0,0,0,13.9,64.452a13.153,13.153,0,0,0,2.03,1.533c.32.134.906.341,1.738.6.814.262,1.2.456,1.133.583L5.226,87.779h7.92l9.911-14.364H50.4l9.9,14.364h8.024ZM28.9,4.677a1.581,1.581,0,0,1,.5-1.044,1.354,1.354,0,0,1,.99-.536h12.68a2.058,2.058,0,0,1,.8.387c.39.265.588.528.588.792V9.129a1.123,1.123,0,0,1-.492.89,1.508,1.508,0,0,1-.89.41H30.292l-.4-.314a3.616,3.616,0,0,1-.641-.547A.992.992,0,0,1,28.9,8.84V4.677Zm-12.78,13.57a4.571,4.571,0,0,1,.449-1.936,7.607,7.607,0,0,1,1.139-1.734A5.725,5.725,0,0,1,19.339,13.3a4.1,4.1,0,0,1,1.94-.5H52.086a4.571,4.571,0,0,1,1.774.389A6.094,6.094,0,0,1,55.5,14.283a6.216,6.216,0,0,1,1.19,1.493,3.346,3.346,0,0,1,.439,1.676v10.5a3.35,3.35,0,0,1-.49,1.725,5.349,5.349,0,0,1-1.288,1.5,7.408,7.408,0,0,1-1.685,1.024,4.086,4.086,0,0,1-1.778.4H21.477l-.5-.089a3,3,0,0,1-.6-.205,5.024,5.024,0,0,1-2.966-1.783,4.869,4.869,0,0,1-1.291-3.264V18.248Zm9.17,40.91a5.109,5.109,0,0,1-3.814,1.582,4.808,4.808,0,0,1-3.723-1.582,5.563,5.563,0,0,1-1.433-3.87,5,5,0,0,1,1.491-3.607,4.891,4.891,0,0,1,3.665-1.546,5.447,5.447,0,0,1,3.814,1.433,4.991,4.991,0,0,1,1.535,3.823A5.219,5.219,0,0,1,25.291,59.158Zm22.682,0a5.369,5.369,0,0,1-1.54-3.87,4.731,4.731,0,0,1,1.635-3.719,5.674,5.674,0,0,1,3.821-1.433,4.856,4.856,0,0,1,3.71,1.546,5.12,5.12,0,0,1,1.44,3.607,5.456,5.456,0,0,1-1.489,3.87,4.952,4.952,0,0,1-3.77,1.582A5.084,5.084,0,0,1,47.972,59.158Z" transform="translate(1899.494 1629.932)" fill="#f8bb2b"/>
  </g>
</svg>
