<svg xmlns="http://www.w3.org/2000/svg" width="64.107" height="76.269" viewBox="0 0 64.107 76.269">
  <path id="Icon_map-bus-station" data-name="Icon map-bus-station" d="M59.6,38.133H10.729a2.647,2.647,0,0,1-2.6-2.616,3.4,3.4,0,0,1,.09-.705l2.6-18.162c.221-1.18,1.284-1.412,2.555-1.412H56.96c1.262,0,2.334.212,2.552,1.387l2.6,18.493a2.7,2.7,0,0,1,.092.574A2.507,2.507,0,0,1,59.6,38.133ZM57.647,58.5a4.857,4.857,0,1,1,4.97-4.866A4.918,4.918,0,0,1,57.647,58.5Zm-45.029,0a4.857,4.857,0,1,1,0-9.711,4.857,4.857,0,1,1,0,9.711ZM21.2,4.553H51.723V9.132H21.2A2.29,2.29,0,1,1,21.2,4.553Zm43.046,7.006c-.891-4.294-3.5-6.023-7.743-7.751S42.432.023,35.042.023c-7.423,0-17.3,2.065-21.545,3.785S6.69,7.266,5.806,11.559L2.88,35.46v33.2H7.459v3.053c0,6.105,7.632,6.105,7.632,0V68.66H53.25v3.053c0,6.105,9.158,6.105,9.158,0V68.66h4.579V35.46Z" transform="translate(-2.88 -0.023)" fill="#f8bb2b"/>
</svg>
