<svg xmlns="http://www.w3.org/2000/svg" width="84.804" height="75.606" viewBox="0 0 84.804 75.606">
  <path id="Icon_metro-ship" data-name="Icon metro-ship" d="M78.464,71.386a2.649,2.649,0,0,1,3.8,0l5.4,5.4-3.8,3.8-3.5-3.5-3.5,3.5a2.649,2.649,0,0,1-3.8,0l-3.5-3.5-3.5,3.5a2.649,2.649,0,0,1-3.8,0l-3.5-3.5-3.5,3.5a2.649,2.649,0,0,1-3.8,0l-3.5-3.5-3.5,3.5a2.649,2.649,0,0,1-3.8,0l-3.5-3.5-3.5,3.5a2.649,2.649,0,0,1-3.8,0l-3.5-3.5-3.5,3.5a2.649,2.649,0,0,1-3.8,0l-3.5-3.5-3.5,3.5a2.649,2.649,0,0,1-3.8,0l-5.4-5.4,3.8-3.8,3.5,3.5,3.5-3.5a2.649,2.649,0,0,1,3.8,0l3.5,3.5,3.5-3.5a2.649,2.649,0,0,1,3.8,0l3.5,3.5,3.5-3.5a2.649,2.649,0,0,1,3.8,0l3.5,3.5,3.5-3.5a2.649,2.649,0,0,1,3.8,0l3.5,3.5,3.5-3.5a2.649,2.649,0,0,1,3.8,0l3.5,3.5,3.5-3.5a2.649,2.649,0,0,1,3.8,0l3.5,3.5Zm-66.408-1.6a2.649,2.649,0,0,1-3.8,0l-5.4-5.4,3.8-3.8,3.5,3.46,3.5-3.46a2.649,2.649,0,0,1,3.8,0l3.5,3.46,2.7-2.7V48.983L14.8,35.735a2.644,2.644,0,0,1-.3-2.384,2.538,2.538,0,0,1,1.688-1.709L23.658,29.2V16.58h5.4v-5.4h10.8V5.78h10.8v5.4h10.8v5.4h5.4V29.2l7.468,2.447a2.538,2.538,0,0,1,1.688,1.709,2.644,2.644,0,0,1-.3,2.384l-8.86,13.248V61.345l.8-.759a2.649,2.649,0,0,1,3.8,0l3.5,3.46,3.5-3.46a2.649,2.649,0,0,1,3.8,0l5.4,5.4-3.8,3.8-3.5-3.5-3.5,3.5a2.649,2.649,0,0,1-3.8,0l-3.5-3.5-3.5,3.5a2.649,2.649,0,0,1-3.8,0l-3.5-3.5-3.5,3.5a2.649,2.649,0,0,1-3.8,0l-3.5-3.5-3.5,3.5a2.649,2.649,0,0,1-3.8,0l-3.5-3.5-3.5,3.5a2.649,2.649,0,0,1-3.8,0l-3.5-3.5-3.5,3.5a2.649,2.649,0,0,1-3.8,0l-3.5-3.5Zm17-47.8v5.4l16.2-5.4,16.2,5.4v-5.4h-5.4v-5.4h-21.6v5.4h-5.4Z" transform="translate(-2.858 -5.78)" fill="#f8bb2b"/>
</svg>
