<svg id="Group_2612" data-name="Group 2612" xmlns="http://www.w3.org/2000/svg" width="110.004" height="34.354" viewBox="0 0 110.004 34.354">
  <path id="Path_4974" data-name="Path 4974" d="M300.5,94.589V91.575a1.8,1.8,0,0,0-2.008-2.057h-.716q-1.964,0-1.965,2.057v5.7a1.692,1.692,0,0,0,.384,1.292,9.928,9.928,0,0,0,1.243.859l4.354,2.343a20.543,20.543,0,0,1,2.034,1.269,3.221,3.221,0,0,1,.934,1.1,6.114,6.114,0,0,1,.332,2.461v7.322q0,5.793-5.549,5.79H296.72q-5.5,0-5.5-6.317v-1.722h4.6v1.865a1.8,1.8,0,0,0,2.06,2.011h.811q1.822,0,1.819-2.011V107.7a1.688,1.688,0,0,0-.381-1.292,9.956,9.956,0,0,0-1.246-.862l-4.354-2.441a13.509,13.509,0,0,1-2.08-1.292,2.955,2.955,0,0,1-.934-1.364,6.9,6.9,0,0,1-.289-2.177V91.24q0-5.887,5.5-5.884h2.87q5.509,0,5.5,5.884v3.349Z" transform="translate(-291.217 -85.356)" fill="#005492"/>
  <path id="Path_4975" data-name="Path 4975" d="M306.142,89.518V119.71h-4.6V89.518h-4.4V85.356h13.4v4.162Z" transform="translate(-280.159 -85.356)" fill="#005492"/>
  <path id="Path_4976" data-name="Path 4976" d="M303.076,119.71V85.356h11.387v4.162h-6.792V99.949H313.7v4.163h-6.027v11.436h6.792v4.163Z" transform="translate(-269.103 -85.356)" fill="#005492"/>
  <path id="Path_4977" data-name="Path 4977" d="M308.538,85.356h8.374q5.552,0,5.549,5.884v10.193q0,5.84-5.5,5.835H313.13V119.71h-4.592Zm4.592,17.75h2.919q1.818,0,1.819-2.008V91.527a1.8,1.8,0,0,0-2.057-2.008H313.13Z" transform="translate(-258.918 -85.356)" fill="#005492"/>
  <path id="Path_4978" data-name="Path 4978" d="M323.511,119.71q-5.509,0-5.5-5.884V91.24q0-5.887,5.5-5.884h3.206q5.5,0,5.5,5.884v22.586q0,5.887-5.5,5.884Zm.908-30.192q-1.822,0-1.819,2.008v22.01a1.8,1.8,0,0,0,2.057,2.011h1.149q1.818,0,1.819-2.011V91.527a1.8,1.8,0,0,0-2.06-2.008Z" transform="translate(-241.258 -85.356)" fill="#005492"/>
  <path id="Path_4979" data-name="Path 4979" d="M335.309,102.055q3.588.958,3.59,4.354v7.463q0,5.84-5.5,5.838h-3.111q-5.5,0-5.5-5.838v-2.2h4.6v1.865q0,2.011,1.816,2.011h1.054a1.8,1.8,0,0,0,2.06-2.011v-7.079c0-1.5-.9-2.252-2.681-2.252h-1.246V100.33h.673q2.677,0,2.679-2.246V91.575a1.8,1.8,0,0,0-2.06-2.008h-.619q-1.822,0-1.819,2.008V95.07h-4.6V91.24q0-5.887,5.5-5.884h2.681q5.5,0,5.5,5.884v6.844A3.65,3.65,0,0,1,335.309,102.055Z" transform="translate(-228.895 -85.356)" fill="#005492"/>
</svg>
