<svg xmlns="http://www.w3.org/2000/svg" width="62" height="62" viewBox="0 0 62 62">
  <g id="objective" transform="translate(0 0.001)">
    <path id="Path_4843" data-name="Path 4843" d="M61.6,347.01,46.1,327.636l-6.548,4.234a1.816,1.816,0,0,1-1.921.032L31,327.921l-6.634,3.98a1.817,1.817,0,0,1-1.921-.032L15.9,327.636.4,347.01a1.816,1.816,0,0,0,1.418,2.951H60.184A1.816,1.816,0,0,0,61.6,347.01Z" transform="translate(0 -287.962)" fill="#fff"/>
    <path id="Path_4844" data-name="Path 4844" d="M155.408,40.242l6.6-3.959a1.816,1.816,0,0,1,1.869,0l6.6,3.959,5.289-3.42L164.757,23.066V17.53l13.588-6.794a1.817,1.817,0,0,0,0-3.249L163.753.191a1.816,1.816,0,0,0-2.629,1.625V23.066L150.119,36.822Z" transform="translate(-131.941)" fill="#fff"/>
  </g>
</svg>
