<svg xmlns="http://www.w3.org/2000/svg" width="70.403" height="70.404" viewBox="0 0 70.403 70.404">
  <g id="Group_2562" data-name="Group 2562" transform="translate(-271.298 -2488.298)">
    <g id="transportation" transform="translate(271.298 2488.298)">
      <path id="Path_4832" data-name="Path 4832" d="M53.121,276.907,50.774,264H34.347L32,276.907l10.561-3.52Z" transform="translate(-27.307 -225.278)" fill="#fff"/>
      <path id="Path_4835" data-name="Path 4835" d="M179.86,136.5l-.445-.445L136,136.032l.29.29a15.009,15.009,0,0,0,10.614,4.4h2.12l1.042-2.347H157.1l-1.642,2.347h22.652a2.471,2.471,0,0,0,1.747-4.218Z" transform="translate(-116.052 -116.08)" fill="#fff"/>
      <path id="Path_4842" data-name="Path 4842" d="M30.508,452.694a4.549,4.549,0,0,1-3.337-1.484,2.2,2.2,0,0,0-3.488,0,4.491,4.491,0,0,1-6.674,0,2.2,2.2,0,0,0-3.491,0,4.5,4.5,0,0,1-6.68,0,2.276,2.276,0,0,0-1.748-.862,2.28,2.28,0,0,0-1.75.862A4.553,4.553,0,0,1,0,452.694v-2.347a2.282,2.282,0,0,0,1.75-.862,4.5,4.5,0,0,1,6.68,0,2.2,2.2,0,0,0,3.5,0,4.495,4.495,0,0,1,6.677,0,2.2,2.2,0,0,0,3.487,0,4.492,4.492,0,0,1,6.674,0,2.271,2.271,0,0,0,1.745.862v2.347Z" transform="translate(0 -382.29)" fill="#fff"/>
      <path id="Path_4844" data-name="Path 4844" d="M7.227,257.406,2.681,244.681l11.4-3.8v16.125A4.676,4.676,0,0,1,16.427,257V240.883l11.4,3.8L23.28,257.415a4.139,4.139,0,0,1,2.146-.56,4.75,4.75,0,0,1,.533.033l4.48-12.546a1.174,1.174,0,0,0-.735-1.508l-2.861-.954-2.222-12.223a1.173,1.173,0,0,0-1.153-.963H18.774v-3.52A1.174,1.174,0,0,0,17.6,224H12.907a1.174,1.174,0,0,0-1.173,1.173v3.52H7.04a1.175,1.175,0,0,0-1.155.963L3.663,241.88.8,242.834a1.174,1.174,0,0,0-.735,1.508l4.481,12.546a4.9,4.9,0,0,1,.54-.033,4.16,4.16,0,0,1,2.138.551Zm6.854-31.06h2.347v2.347H14.081Zm-1.173,4.694h9.582l1.816,9.994-8.68-2.894a1.192,1.192,0,0,0-.372-.06,1.179,1.179,0,0,0-.371.06L6.2,241.034l1.815-9.994Z" transform="translate(0 -191.145)" fill="#fff"/>
      <path id="Path_4845" data-name="Path 4845" d="M80.077,13.291c.013.036.022.074.039.109a1.151,1.151,0,0,0,.228.338l7.33,7.334a16.077,16.077,0,0,0,11.444,4.743h.316l-2.916,6.564a1.173,1.173,0,0,0,.7,1.59l3.518,1.173a1.2,1.2,0,0,0,.372.06,1.172,1.172,0,0,0,.961-.5l6.217-8.886h22.042a3.645,3.645,0,0,0,2.576-6.221l-3.635-3.638a14.314,14.314,0,0,0-10.189-4.222h-9.095L104.464,2.9a1.178,1.178,0,0,0-1-.551h-3.52a1.174,1.174,0,0,0-1.138,1.459l1.982,7.929H91.434L88.164.837A1.175,1.175,0,0,0,87.04,0H81.173A1.174,1.174,0,0,0,80,1.173V12.907c0,.026.013.047.014.073A1.182,1.182,0,0,0,80.077,13.291ZM82.347,2.347h3.821l2.816,9.387H82.347Zm20.471,2.347,4.4,7.04h-4.007l-1.76-7.04Zm-.523,9.387h16.787a11.951,11.951,0,0,1,7.126,2.347h-8.658v2.347h11.219l1.2,1.2,1.275,1.275a1.3,1.3,0,0,1-.915,2.215h-20.4l.35-.5a1.174,1.174,0,0,0-.961-1.846h-7.036a1.243,1.243,0,0,0-1.072.7l-.732,1.65H99.119a13.715,13.715,0,0,1-9.189-3.515c-.2-.178-.4-.35-.595-.541L84,14.081h18.29Zm-3.106,18.07,3.857-8.683h4.02l-6.415,9.17Z" transform="translate(-68.266)" fill="#fff"/>
      <path id="Path_4846" data-name="Path 4846" d="M72,288h9.387v2.347H72Z" transform="translate(-61.44 -245.758)" fill="#fff"/>
      <path id="Path_4847" data-name="Path 4847" d="M176,112h2.346v2.347H176Z" transform="translate(-150.186 -95.573)" fill="#fff"/>
      <path id="Path_4848" data-name="Path 4848" d="M208,112h2.346v2.347H208Z" transform="translate(-177.492 -95.573)" fill="#fff"/>
      <path id="Path_4849" data-name="Path 4849" d="M240,112h2.346v2.347H240Z" transform="translate(-204.798 -95.573)" fill="#fff"/>
      <path id="Path_4850" data-name="Path 4850" d="M272,112h2.346v2.347H272Z" transform="translate(-232.105 -95.573)" fill="#fff"/>
      <path id="Path_4851" data-name="Path 4851" d="M304.008,112h2.346v2.347h-2.346Z" transform="translate(-259.418 -95.573)" fill="#fff"/>
      <path id="Path_4852" data-name="Path 4852" d="M261.425,308.383l-3.52-7.04a1.175,1.175,0,0,0-1.05-.649h-7.04v-3.52A1.174,1.174,0,0,0,248.641,296H225.173A1.174,1.174,0,0,0,224,297.173v21.121a1.174,1.174,0,0,0,1.173,1.173h4.86a4.671,4.671,0,0,0,9.054,0h8.547a4.671,4.671,0,0,0,9.054,0h3.687a1.174,1.174,0,0,0,1.173-1.173v-9.387c0-.013-.008-.023-.008-.036a1.186,1.186,0,0,0-.115-.488Zm-4.885,8.264c-.027-.07-.045-.144-.074-.212a4.639,4.639,0,0,0-.4-.739c-.034-.05-.076-.094-.111-.143a4.943,4.943,0,0,0-.418-.507c-.068-.07-.143-.134-.216-.2a4.989,4.989,0,0,0-.421-.349c-.087-.062-.176-.12-.266-.177a4.671,4.671,0,0,0-.471-.256c-.1-.046-.191-.092-.291-.13a4.636,4.636,0,0,0-.556-.172c-.09-.023-.178-.053-.271-.07a4.562,4.562,0,0,0-.881-.09,4.638,4.638,0,0,0-.842.086c-.067.012-.131.025-.2.04a4.59,4.59,0,0,0-.779.243c-.011,0-.019.011-.029.014a4.672,4.672,0,0,0-.5.248V303.04h2.347v5.867a1.174,1.174,0,0,0,1.173,1.173H259.2v7.04h-2.495a4.923,4.923,0,0,0-.168-.474Zm-4.379,3.994a2.347,2.347,0,1,1,2.347-2.347A2.349,2.349,0,0,1,252.161,320.641Zm-13.222-3.994c-.027-.07-.045-.144-.074-.212a4.636,4.636,0,0,0-.4-.739c-.034-.05-.076-.094-.111-.143a4.935,4.935,0,0,0-.418-.507c-.068-.07-.143-.134-.216-.2a4.984,4.984,0,0,0-.421-.349c-.087-.062-.176-.12-.266-.177a4.671,4.671,0,0,0-.471-.256c-.1-.046-.191-.092-.291-.13a4.636,4.636,0,0,0-.556-.172c-.09-.023-.178-.053-.271-.07a4.561,4.561,0,0,0-.881-.09,4.635,4.635,0,0,0-.88.089c-.093.018-.18.048-.271.07a4.7,4.7,0,0,0-.556.172c-.1.039-.195.084-.291.13a4.671,4.671,0,0,0-.471.256c-.092.056-.181.114-.266.177a4.286,4.286,0,0,0-.421.348c-.073.067-.148.129-.216.2a4.678,4.678,0,0,0-.418.507c-.035.049-.079.093-.111.143a4.636,4.636,0,0,0-.4.739c-.029.069-.048.142-.074.212a4.717,4.717,0,0,0-.165.474h-3.67V298.347h21.121v18.774h-8.362a4.615,4.615,0,0,0-.167-.474Zm-4.379,3.994a2.347,2.347,0,1,1,2.347-2.347A2.349,2.349,0,0,1,234.561,320.641Zm23.916-12.907h-3.968V303.04h1.622Z" transform="translate(-191.145 -252.585)" fill="#fff"/>
    </g>
  </g>
</svg>
