<svg xmlns="http://www.w3.org/2000/svg" width="24.129" height="15.08" viewBox="0 0 24.129 15.08">
  <path id="Icon_awesome-google-plus-g" data-name="Icon awesome-google-plus-g" d="M15.559,10.96a6.4,6.4,0,0,1,.123,1.255c0,4.31-2.891,7.365-7.242,7.365a7.54,7.54,0,1,1,0-15.08,7.2,7.2,0,0,1,5.051,1.975L11.444,8.44a4.234,4.234,0,0,0-3-1.162,4.764,4.764,0,0,0,0,9.526,4.084,4.084,0,0,0,4.279-3.251H8.44V10.96h7.118Zm7.281.253V9.024h-2.2v2.189H18.452v2.2h2.189V15.6h2.2V13.412h2.189v-2.2H22.84Z" transform="translate(-0.9 -4.5)"/>
</svg>
