<svg xmlns="http://www.w3.org/2000/svg" width="39" height="39" viewBox="0 0 39 39">
  <circle id="Ellipse_7" data-name="Ellipse 7" cx="19.5" cy="19.5" r="19.5" fill="#76a9ea"/>
  <path id="Icon_awesome-twitter" data-name="Icon awesome-twitter" d="M20.641,8.037c.015.2.015.409.015.613A13.323,13.323,0,0,1,7.24,22.066,13.324,13.324,0,0,1,0,19.949a9.754,9.754,0,0,0,1.139.058,9.443,9.443,0,0,0,5.854-2.014,4.723,4.723,0,0,1-4.408-3.27,5.946,5.946,0,0,0,.89.073,4.987,4.987,0,0,0,1.241-.161A4.716,4.716,0,0,1,.934,10.008V9.95a4.749,4.749,0,0,0,2.131.6,4.722,4.722,0,0,1-1.46-6.306,13.4,13.4,0,0,0,9.722,4.934,5.323,5.323,0,0,1-.117-1.08,4.72,4.72,0,0,1,8.16-3.226,9.283,9.283,0,0,0,2.993-1.139,4.7,4.7,0,0,1-2.073,2.6,9.452,9.452,0,0,0,2.715-.73,10.135,10.135,0,0,1-2.365,2.438Z" transform="translate(9.161 7.993)" fill="#fff"/>
</svg>
